<svg
 version="1.1" id="Layer_1" xmlns="http://www.w3.org/2000/svg" xmlns:xlink="http://www.w3.org/1999/xlink" x="0px" y="0px" viewBox="0 0 64 64" style="enable-background:new 0 0 64 64;" xml:space="preserve">
<g>
    <path fill="#FFFF00" d="M32,20c-6.6,0-12,5.4-12,12s5.4,12,12,12s12-5.4,12-12S38.6,20,32,20z M32,40c-4.4,0-8-3.6-8-8s3.6-8,8-8s8,3.6,8,8 S36.4,40,32,40z"/>
    <path fill="#FFFF00" d="M32,14c1.1,0,2-0.9,2-2V4c0-1.1-0.9-2-2-2s-2,0.9-2,2v8C30,13.1,30.9,14,32,14z"/>
    <path fill="#FFFF00" d="M32,50c-1.1,0-2,0.9-2,2v8c0,1.1,0.9,2,2,2s2-0.9,2-2v-8C34,50.9,33.1,50,32,50z"/>
    <path fill="#FFFF00" d="M14,32c0-1.1-0.9-2-2-2H4c-1.1,0-2,0.9-2,2s0.9,2,2,2h8C13.1,34,14,33.1,14,32z"/>
    <path fill="#FFFF00" d="M60,30h-8c-1.1,0-2,0.9-2,2s0.9,2,2,2h8c1.1,0,2-0.9,2-2S61.1,30,60,30z"/>
    <path fill="#FFFF00" d="M16.2,19.8c0.5,0.5,1.3,0.8,2,0.8s1.5-0.3,2-0.8c1.1-1.1,1.1-2.9,0-4L15.8,11c-1.1-1.1-2.9-1.1-4,0s-1.1,2.9,0,4 L16.2,19.8z"/>
    <path fill="#FFFF00" d="M47.8,44.2c-1.1-1.1-2.9-1.1-4,0s-1.1,2.9,0,4l4.4,4.4c0.5,0.5,1.3,0.8,2,0.8s1.5-0.3,2-0.8c1.1-1.1,1.1-2.9,0-4 L47.8,44.2z"/>
    <path fill="#FFFF00" d="M19.8,47.8c-1.1-1.1-2.9-1.1-4,0l-4.4,4.4c-1.1,1.1-1.1,2.9,0,4c0.5,0.5,1.3,0.8,2,0.8s1.5-0.3,2-0.8l4.4-4.4 C20.9,50.7,20.9,48.9,19.8,47.8z"/>
    <path fill="#FFFF00" d="M48.2,20.6c0.7,0,1.5-0.3,2-0.8l4.4-4.4c1.1-1.1,1.1-2.9,0-4s-2.9-1.1-4,0l-4.4,4.4c-1.1,1.1-1.1,2.9,0,4 C46.7,20.3,47.5,20.6,48.2,20.6z"/>
</g>
</svg>